<mxfile host="app.diagrams.net" modified="2021-08-25T08:36:33.218Z" agent="5.0 (Windows NT 10.0; Win64; x64) AppleWebKit/537.36 (KHTML, like Gecko) Chrome/92.0.4515.131 Safari/537.36 OPR/78.0.4093.147" etag="D_WD3mcoWGW_hWTtOYaW" version="14.6.5" type="github">
  <diagram id="zm9EhGsO0Ewxgib7d6Pb" name="Page-1">
    <mxGraphModel dx="2653" dy="527" grid="1" gridSize="10" guides="1" tooltips="1" connect="1" arrows="1" fold="1" page="1" pageScale="1" pageWidth="850" pageHeight="1100" math="0" shadow="0">
      <root>
        <mxCell id="0" />
        <mxCell id="1" parent="0" />
        <mxCell id="q2r3y-brRH6zKTwL2eAa-1" value="" style="rounded=1;whiteSpace=wrap;html=1;" vertex="1" parent="1">
          <mxGeometry x="-160" y="70" width="730" height="390" as="geometry" />
        </mxCell>
        <mxCell id="q2r3y-brRH6zKTwL2eAa-2" value="&lt;font style=&quot;font-size: 18px&quot;&gt;ایجاد واحد - نقش رییس سازمان&lt;/font&gt;" style="text;html=1;strokeColor=none;fillColor=none;align=center;verticalAlign=middle;whiteSpace=wrap;rounded=0;" vertex="1" parent="1">
          <mxGeometry x="280" y="40" width="200" height="20" as="geometry" />
        </mxCell>
        <mxCell id="q2r3y-brRH6zKTwL2eAa-8" value="تنظمیات واحد" style="rounded=1;whiteSpace=wrap;html=1;" vertex="1" parent="1">
          <mxGeometry x="-40" y="250" width="120" height="60" as="geometry" />
        </mxCell>
        <mxCell id="q2r3y-brRH6zKTwL2eAa-19" value="درخت چارت" style="rounded=0;whiteSpace=wrap;html=1;" vertex="1" parent="1">
          <mxGeometry x="430" y="70" width="160" height="390" as="geometry" />
        </mxCell>
        <mxCell id="q2r3y-brRH6zKTwL2eAa-20" value="" style="rounded=0;whiteSpace=wrap;html=1;" vertex="1" parent="1">
          <mxGeometry x="-140" y="155" width="540" height="270" as="geometry" />
        </mxCell>
        <mxCell id="q2r3y-brRH6zKTwL2eAa-7" value="تعریف سطح دسترسی اولیه" style="rounded=1;whiteSpace=wrap;html=1;" vertex="1" parent="1">
          <mxGeometry x="-90" y="210" width="120" height="60" as="geometry" />
        </mxCell>
        <mxCell id="q2r3y-brRH6zKTwL2eAa-3" value="نام واحد" style="text;html=1;strokeColor=none;fillColor=none;align=center;verticalAlign=middle;whiteSpace=wrap;rounded=0;" vertex="1" parent="1">
          <mxGeometry x="275" y="210" width="90" height="20" as="geometry" />
        </mxCell>
        <mxCell id="q2r3y-brRH6zKTwL2eAa-4" value="رییس واحد&amp;nbsp;" style="text;html=1;strokeColor=none;fillColor=none;align=center;verticalAlign=middle;whiteSpace=wrap;rounded=0;" vertex="1" parent="1">
          <mxGeometry x="260" y="240" width="120" height="20" as="geometry" />
        </mxCell>
        <mxCell id="q2r3y-brRH6zKTwL2eAa-18" value="تنظیمات واحد" style="rounded=0;whiteSpace=wrap;html=1;" vertex="1" parent="1">
          <mxGeometry x="60" y="210" width="120" height="60" as="geometry" />
        </mxCell>
        <mxCell id="q2r3y-brRH6zKTwL2eAa-22" value="modal box" style="text;html=1;strokeColor=none;fillColor=none;align=center;verticalAlign=middle;whiteSpace=wrap;rounded=0;" vertex="1" parent="1">
          <mxGeometry x="-90" y="135" width="70" height="20" as="geometry" />
        </mxCell>
        <mxCell id="q2r3y-brRH6zKTwL2eAa-23" value="نقش ها" style="text;html=1;strokeColor=none;fillColor=none;align=center;verticalAlign=middle;whiteSpace=wrap;rounded=0;" vertex="1" parent="1">
          <mxGeometry x="300" y="270" width="40" height="20" as="geometry" />
        </mxCell>
        <mxCell id="q2r3y-brRH6zKTwL2eAa-24" value="انتساب پیش فرض همه درسترسی به رییس واحد" style="text;html=1;strokeColor=none;fillColor=none;align=center;verticalAlign=middle;whiteSpace=wrap;rounded=0;" vertex="1" parent="1">
          <mxGeometry x="-130" y="180" width="170" height="20" as="geometry" />
        </mxCell>
        <mxCell id="q2r3y-brRH6zKTwL2eAa-25" value="" style="rounded=0;whiteSpace=wrap;html=1;" vertex="1" parent="1">
          <mxGeometry x="41" y="179" width="10" height="10" as="geometry" />
        </mxCell>
        <mxCell id="q2r3y-brRH6zKTwL2eAa-26" value="ایجاد کردن" style="rounded=1;whiteSpace=wrap;html=1;" vertex="1" parent="1">
          <mxGeometry x="-130" y="380" width="95" height="30" as="geometry" />
        </mxCell>
        <mxCell id="q2r3y-brRH6zKTwL2eAa-27" value="&lt;font style=&quot;font-size: 9px&quot;&gt;ایجاد کردن&lt;/font&gt;" style="rounded=1;whiteSpace=wrap;html=1;" vertex="1" parent="1">
          <mxGeometry x="250" y="240" width="40" height="16" as="geometry" />
        </mxCell>
        <mxCell id="q2r3y-brRH6zKTwL2eAa-28" value="&lt;font size=&quot;1&quot;&gt;افزودن&lt;/font&gt;" style="rounded=1;whiteSpace=wrap;html=1;" vertex="1" parent="1">
          <mxGeometry x="210" y="240" width="40" height="16" as="geometry" />
        </mxCell>
        <mxCell id="q2r3y-brRH6zKTwL2eAa-29" value="" style="rounded=1;whiteSpace=wrap;html=1;" vertex="1" parent="1">
          <mxGeometry x="-1040" y="70" width="810" height="420" as="geometry" />
        </mxCell>
        <mxCell id="q2r3y-brRH6zKTwL2eAa-30" value="&lt;span style=&quot;font-size: 18px&quot;&gt;افزودن سمت به واحد - رییس واحد یا هر شخص مجاز&lt;/span&gt;" style="text;html=1;strokeColor=none;fillColor=none;align=center;verticalAlign=middle;whiteSpace=wrap;rounded=0;" vertex="1" parent="1">
          <mxGeometry x="-530" y="40" width="340" height="20" as="geometry" />
        </mxCell>
        <mxCell id="q2r3y-brRH6zKTwL2eAa-31" value="تنظمیات واحد" style="rounded=1;whiteSpace=wrap;html=1;" vertex="1" parent="1">
          <mxGeometry x="-840" y="250" width="120" height="60" as="geometry" />
        </mxCell>
        <mxCell id="q2r3y-brRH6zKTwL2eAa-32" value="درخت چارت" style="rounded=0;whiteSpace=wrap;html=1;" vertex="1" parent="1">
          <mxGeometry x="-370" y="70" width="160" height="420" as="geometry" />
        </mxCell>
        <mxCell id="q2r3y-brRH6zKTwL2eAa-33" value="" style="rounded=0;whiteSpace=wrap;html=1;" vertex="1" parent="1">
          <mxGeometry x="-950" y="155" width="555" height="305" as="geometry" />
        </mxCell>
        <mxCell id="q2r3y-brRH6zKTwL2eAa-34" value="" style="rounded=1;whiteSpace=wrap;html=1;" vertex="1" parent="1">
          <mxGeometry x="-910" y="170" width="330" height="230" as="geometry" />
        </mxCell>
        <mxCell id="q2r3y-brRH6zKTwL2eAa-35" value="نام نقش" style="text;html=1;strokeColor=none;fillColor=none;align=center;verticalAlign=middle;whiteSpace=wrap;rounded=0;" vertex="1" parent="1">
          <mxGeometry x="-500" y="210" width="90" height="20" as="geometry" />
        </mxCell>
        <mxCell id="q2r3y-brRH6zKTwL2eAa-36" value="لیست کاربران" style="text;html=1;strokeColor=none;fillColor=none;align=center;verticalAlign=middle;whiteSpace=wrap;rounded=0;" vertex="1" parent="1">
          <mxGeometry x="-525" y="240" width="120" height="20" as="geometry" />
        </mxCell>
        <mxCell id="q2r3y-brRH6zKTwL2eAa-38" value="modal box" style="text;html=1;strokeColor=none;fillColor=none;align=center;verticalAlign=middle;whiteSpace=wrap;rounded=0;" vertex="1" parent="1">
          <mxGeometry x="-890" y="135" width="70" height="20" as="geometry" />
        </mxCell>
        <mxCell id="q2r3y-brRH6zKTwL2eAa-42" value="ایجاد کردن" style="rounded=1;whiteSpace=wrap;html=1;" vertex="1" parent="1">
          <mxGeometry x="-935" y="410" width="95" height="30" as="geometry" />
        </mxCell>
        <mxCell id="q2r3y-brRH6zKTwL2eAa-45" value=".................&lt;br&gt;................&lt;br&gt;............&lt;br&gt;............&lt;br&gt;............." style="rounded=1;whiteSpace=wrap;html=1;" vertex="1" parent="1">
          <mxGeometry x="-545" y="260" width="120" height="100" as="geometry" />
        </mxCell>
        <mxCell id="q2r3y-brRH6zKTwL2eAa-46" value="لیست عملیات های روی واحد" style="text;html=1;strokeColor=none;fillColor=none;align=center;verticalAlign=middle;whiteSpace=wrap;rounded=0;" vertex="1" parent="1">
          <mxGeometry x="-720" y="189" width="130" height="20" as="geometry" />
        </mxCell>
        <mxCell id="q2r3y-brRH6zKTwL2eAa-47" value="اضافه کردن سمت -&lt;br&gt;تغییر تنظمیات واحد-" style="rounded=1;whiteSpace=wrap;html=1;" vertex="1" parent="1">
          <mxGeometry x="-770" y="209" width="175" height="60" as="geometry" />
        </mxCell>
        <mxCell id="q2r3y-brRH6zKTwL2eAa-48" value="لیست عملیات روی زیر واحد" style="text;html=1;strokeColor=none;fillColor=none;align=center;verticalAlign=middle;whiteSpace=wrap;rounded=0;" vertex="1" parent="1">
          <mxGeometry x="-720" y="280" width="130" height="20" as="geometry" />
        </mxCell>
        <mxCell id="q2r3y-brRH6zKTwL2eAa-49" value="تغییر نام واحد-&lt;br&gt;پاک کردن واحد-" style="rounded=1;whiteSpace=wrap;html=1;" vertex="1" parent="1">
          <mxGeometry x="-790" y="330" width="190" height="60" as="geometry" />
        </mxCell>
        <mxCell id="q2r3y-brRH6zKTwL2eAa-50" value="لیست واحدها:" style="text;html=1;strokeColor=none;fillColor=none;align=right;verticalAlign=middle;whiteSpace=wrap;rounded=0;" vertex="1" parent="1">
          <mxGeometry x="-700" y="300" width="110" height="20" as="geometry" />
        </mxCell>
        <mxCell id="q2r3y-brRH6zKTwL2eAa-55" value="" style="rounded=1;whiteSpace=wrap;html=1;" vertex="1" parent="1">
          <mxGeometry x="-780" y="300" width="120" height="20" as="geometry" />
        </mxCell>
        <mxCell id="q2r3y-brRH6zKTwL2eAa-56" value="" style="rounded=1;whiteSpace=wrap;html=1;" vertex="1" parent="1">
          <mxGeometry x="-260" y="580" width="810" height="420" as="geometry" />
        </mxCell>
        <mxCell id="q2r3y-brRH6zKTwL2eAa-57" value="&lt;span style=&quot;font-size: 18px&quot;&gt;تعیین سطح دسترسی دایمی - رییس واحد یا هر شخص مجاز&lt;/span&gt;" style="text;html=1;strokeColor=none;fillColor=none;align=center;verticalAlign=middle;whiteSpace=wrap;rounded=0;" vertex="1" parent="1">
          <mxGeometry x="220" y="550" width="370" height="20" as="geometry" />
        </mxCell>
        <mxCell id="q2r3y-brRH6zKTwL2eAa-58" value="تنظمیات واحد" style="rounded=1;whiteSpace=wrap;html=1;" vertex="1" parent="1">
          <mxGeometry x="-60" y="760" width="120" height="60" as="geometry" />
        </mxCell>
        <mxCell id="q2r3y-brRH6zKTwL2eAa-59" value="درخت چارت" style="rounded=0;whiteSpace=wrap;html=1;" vertex="1" parent="1">
          <mxGeometry x="410" y="580" width="160" height="420" as="geometry" />
        </mxCell>
        <mxCell id="q2r3y-brRH6zKTwL2eAa-60" value="" style="rounded=0;whiteSpace=wrap;html=1;" vertex="1" parent="1">
          <mxGeometry x="-170" y="665" width="555" height="305" as="geometry" />
        </mxCell>
        <mxCell id="q2r3y-brRH6zKTwL2eAa-64" value="modal box" style="text;html=1;strokeColor=none;fillColor=none;align=center;verticalAlign=middle;whiteSpace=wrap;rounded=0;" vertex="1" parent="1">
          <mxGeometry x="-110" y="645" width="70" height="20" as="geometry" />
        </mxCell>
        <mxCell id="q2r3y-brRH6zKTwL2eAa-65" value="ایجاد کردن" style="rounded=1;whiteSpace=wrap;html=1;" vertex="1" parent="1">
          <mxGeometry x="-155" y="920" width="95" height="30" as="geometry" />
        </mxCell>
        <mxCell id="q2r3y-brRH6zKTwL2eAa-73" value="" style="rounded=1;whiteSpace=wrap;html=1;" vertex="1" parent="1">
          <mxGeometry x="-1190" y="595" width="810" height="420" as="geometry" />
        </mxCell>
        <mxCell id="q2r3y-brRH6zKTwL2eAa-74" value="&lt;span style=&quot;font-size: 18px&quot;&gt;تعیین تنظیمات واحد - رییس واحد یا هر شخص مجاز&lt;/span&gt;" style="text;html=1;strokeColor=none;fillColor=none;align=center;verticalAlign=middle;whiteSpace=wrap;rounded=0;" vertex="1" parent="1">
          <mxGeometry x="-680" y="565" width="340" height="20" as="geometry" />
        </mxCell>
        <mxCell id="q2r3y-brRH6zKTwL2eAa-75" value="تنظمیات واحد" style="rounded=1;whiteSpace=wrap;html=1;" vertex="1" parent="1">
          <mxGeometry x="-990" y="775" width="120" height="60" as="geometry" />
        </mxCell>
        <mxCell id="q2r3y-brRH6zKTwL2eAa-76" value="درخت چارت" style="rounded=0;whiteSpace=wrap;html=1;" vertex="1" parent="1">
          <mxGeometry x="-520" y="595" width="160" height="420" as="geometry" />
        </mxCell>
        <mxCell id="q2r3y-brRH6zKTwL2eAa-77" value="" style="rounded=0;whiteSpace=wrap;html=1;" vertex="1" parent="1">
          <mxGeometry x="-1100" y="680" width="555" height="305" as="geometry" />
        </mxCell>
        <mxCell id="q2r3y-brRH6zKTwL2eAa-78" value="" style="rounded=1;whiteSpace=wrap;html=1;" vertex="1" parent="1">
          <mxGeometry x="-970" y="705" width="250" height="250" as="geometry" />
        </mxCell>
        <mxCell id="q2r3y-brRH6zKTwL2eAa-81" value="modal box" style="text;html=1;strokeColor=none;fillColor=none;align=center;verticalAlign=middle;whiteSpace=wrap;rounded=0;" vertex="1" parent="1">
          <mxGeometry x="-1040" y="660" width="70" height="20" as="geometry" />
        </mxCell>
        <mxCell id="q2r3y-brRH6zKTwL2eAa-82" value="ایجاد کردن" style="rounded=1;whiteSpace=wrap;html=1;" vertex="1" parent="1">
          <mxGeometry x="-1085" y="935" width="95" height="30" as="geometry" />
        </mxCell>
        <mxCell id="q2r3y-brRH6zKTwL2eAa-90" value="" style="rounded=1;whiteSpace=wrap;html=1;" vertex="1" parent="1">
          <mxGeometry x="180" y="711" width="120" height="26" as="geometry" />
        </mxCell>
        <mxCell id="q2r3y-brRH6zKTwL2eAa-91" value="انتخاب سمت" style="text;html=1;strokeColor=none;fillColor=none;align=center;verticalAlign=middle;whiteSpace=wrap;rounded=0;" vertex="1" parent="1">
          <mxGeometry x="290" y="715" width="80" height="20" as="geometry" />
        </mxCell>
        <mxCell id="q2r3y-brRH6zKTwL2eAa-92" value="" style="rounded=1;whiteSpace=wrap;html=1;" vertex="1" parent="1">
          <mxGeometry x="145" y="749" width="120" height="26" as="geometry" />
        </mxCell>
        <mxCell id="q2r3y-brRH6zKTwL2eAa-93" value="لیست کاربران" style="text;html=1;strokeColor=none;fillColor=none;align=center;verticalAlign=middle;whiteSpace=wrap;rounded=0;" vertex="1" parent="1">
          <mxGeometry x="260" y="752" width="80" height="20" as="geometry" />
        </mxCell>
        <mxCell id="q2r3y-brRH6zKTwL2eAa-94" value="همه ی کاربران" style="text;html=1;strokeColor=none;fillColor=none;align=center;verticalAlign=middle;whiteSpace=wrap;rounded=0;" vertex="1" parent="1">
          <mxGeometry x="46" y="749" width="80" height="20" as="geometry" />
        </mxCell>
        <mxCell id="q2r3y-brRH6zKTwL2eAa-95" value="" style="rounded=1;whiteSpace=wrap;html=1;" vertex="1" parent="1">
          <mxGeometry x="126" y="757" width="10" height="10" as="geometry" />
        </mxCell>
        <mxCell id="q2r3y-brRH6zKTwL2eAa-109" value="تغییر نام واحد-&lt;br&gt;پاک کردن واحد-" style="rounded=1;whiteSpace=wrap;html=1;" vertex="1" parent="1">
          <mxGeometry x="-54" y="849" width="190" height="60" as="geometry" />
        </mxCell>
        <mxCell id="q2r3y-brRH6zKTwL2eAa-110" value="" style="rounded=1;whiteSpace=wrap;html=1;" vertex="1" parent="1">
          <mxGeometry x="-44" y="819" width="120" height="20" as="geometry" />
        </mxCell>
        <mxCell id="q2r3y-brRH6zKTwL2eAa-111" value="لیست واحدها:" style="text;html=1;strokeColor=none;fillColor=none;align=right;verticalAlign=middle;whiteSpace=wrap;rounded=0;" vertex="1" parent="1">
          <mxGeometry x="36" y="819" width="110" height="20" as="geometry" />
        </mxCell>
        <mxCell id="q2r3y-brRH6zKTwL2eAa-112" value="لیست عملیات روی زیر واحد" style="text;html=1;strokeColor=none;fillColor=none;align=center;verticalAlign=middle;whiteSpace=wrap;rounded=0;" vertex="1" parent="1">
          <mxGeometry x="16" y="799" width="130" height="20" as="geometry" />
        </mxCell>
        <mxCell id="q2r3y-brRH6zKTwL2eAa-113" value="اضافه کردن سمت -&lt;br&gt;تغییر تنظمیات واحد-" style="rounded=1;whiteSpace=wrap;html=1;" vertex="1" parent="1">
          <mxGeometry x="185" y="819" width="175" height="60" as="geometry" />
        </mxCell>
        <mxCell id="q2r3y-brRH6zKTwL2eAa-114" value="لیست عملیات های روی واحد" style="text;html=1;strokeColor=none;fillColor=none;align=center;verticalAlign=middle;whiteSpace=wrap;rounded=0;" vertex="1" parent="1">
          <mxGeometry x="235" y="799" width="130" height="20" as="geometry" />
        </mxCell>
      </root>
    </mxGraphModel>
  </diagram>
</mxfile>
